<?xml version="1.0" encoding="utf-8"?>
<!-- Generator: Adobe Illustrator 15.0.0, SVG Export Plug-In . SVG Version: 6.00 Build 0)  -->
<!DOCTYPE svg PUBLIC "-//W3C//DTD SVG 1.1//EN" "http://www.w3.org/Graphics/SVG/1.1/DTD/svg11.dtd">
<svg version="1.1" id="Layer_1" xmlns="http://www.w3.org/2000/svg" xmlns:xlink="http://www.w3.org/1999/xlink" x="0px" y="0px"
	 width="219.375px" height="20.406px" viewBox="0 0 219.375 20.406" enable-background="new 0 0 219.375 20.406"
	 xml:space="preserve">
<path d="M19.394,10.883c0,5.072-3.548,9.277-9.121,9.277c-5.335,0-10.065-3.918-10.065-9.936c0-6.045,5.073-9.959,10.039-9.959
	c3.207,0,5.204,0.919,7.229,2.336l-1.105,1.656c-1.788-1.286-3.994-2.1-6.097-2.1c-4.914,0-7.779,3.807-7.779,8.066
	c0,4.544,3.337,8.068,7.831,8.068c3.786,0,6.466-2.523,6.834-5.52H9.957V10.88h9.437V10.883z M30.217,20.16
	c4.309,0,7.281-2.762,7.281-7.23V0.578h-2.104v12.199c0,3.836-2.181,5.488-5.178,5.488c-3.023,0-5.127-1.63-5.127-5.488V0.578
	h-2.101V12.93C22.989,17.555,25.801,20.16,30.217,20.16 M51.443,10.883v1.891h7.203c-0.371,2.996-3.051,5.521-6.835,5.521
	c-4.495,0-7.833-3.522-7.833-8.068c0-4.26,2.867-8.066,7.779-8.066c2.104,0,4.311,0.813,6.099,2.1l1.104-1.656
	c-2.025-1.417-4.021-2.336-7.228-2.336c-4.968,0-10.039,3.914-10.039,9.959c0,6.018,4.73,9.936,10.064,9.936
	c5.571,0,9.12-4.205,9.12-9.277h-9.434V10.883z M73.946,10.883v1.891h7.202c-0.368,2.996-3.048,5.521-6.834,5.521
	c-4.494,0-7.832-3.522-7.832-8.068c0-4.26,2.865-8.066,7.779-8.066c2.104,0,4.31,0.813,6.099,2.1l1.104-1.656
	c-2.023-1.417-4.023-2.336-7.228-2.336c-4.969,0-10.041,3.914-10.041,9.959c0,6.018,4.73,9.936,10.066,9.936
	c5.574,0,9.122-4.205,9.122-9.277h-9.437V10.883z M98.508,19.844v-1.89h-9.172v-6.938h8.253V9.121h-8.253V2.473h9.172V0.578H87.232
	v19.266H98.508z M104.055,0.211l-0.421,0.107v19.525h2.103V5.234l12.512,14.977l0.262-0.078V0.578h-2.102v14.376L104.055,0.211z
	 M138.773,19.844V0.578h-2.103v8.543h-10.304V0.578h-2.104v19.266h2.104v-8.828h10.304v8.828H138.773z M155.753,19.844v-1.89h-9.173
	v-6.938h8.256V9.121h-8.256V2.473h9.173V0.578h-11.274v19.266H155.753z M160.536,19.844h2.104V0.578h-2.104V19.844z M187.006,19.844
	L186.27,0.266l-0.422-0.055L177.7,14.72l-8.356-14.509l-0.396,0.055l-0.733,19.578h2.129l0.234-13.641l6.887,11.668h0.29
	l6.832-11.645l0.289,13.617L187.006,19.844L187.006,19.844z"/>
<g>
	<path d="M206.894,15.586v-2.104l4.528-3.279l-4.528-3.296V4.82l6.001,4.486v1.803L206.894,15.586z"/>
</g>
</svg>
