<?xml version="1.0" encoding="iso-8859-1"?>
<!-- Generator: Adobe Illustrator 15.0.0, SVG Export Plug-In . SVG Version: 6.00 Build 0)  -->
<!DOCTYPE svg PUBLIC "-//W3C//DTD SVG 1.1//EN" "http://www.w3.org/Graphics/SVG/1.1/DTD/svg11.dtd">
<svg version="1.1" id="Layer_1" xmlns="http://www.w3.org/2000/svg" xmlns:xlink="http://www.w3.org/1999/xlink" x="0px" y="0px"
	 width="500px" height="500px" viewBox="0 0 500 500" style="enable-background:new 0 0 500 500;" xml:space="preserve">
<path d="M379.399,191.824c-7.297-17.914-17.272-33.281-29.952-46.07c-12.664-12.805-27.453-22.859-44.345-30.148
	c-16.897-7.297-34.819-10.945-53.767-10.945c-18.945,0-36.991,3.648-54.14,10.945c-17.156,7.289-32.203,17.344-45.117,30.148
	c-12.93,12.789-23.234,28.156-30.914,46.07c-7.68,17.93-11.516,37.383-11.516,58.367c0,21.25,3.641,40.704,10.938,58.375
	c7.297,17.664,17.281,32.969,29.953,45.883c12.672,12.93,27.453,22.977,44.352,30.148c16.898,7.154,34.812,10.74,53.758,10.74
	c18.946,0,36.992-3.586,54.148-10.74c17.147-7.174,32.188-17.221,45.116-30.148c12.931-12.914,23.234-28.219,30.906-45.883
	c7.688-17.672,11.531-37.125,11.531-58.375C390.353,229.207,386.703,209.754,379.399,191.824L379.399,191.824z M349.072,296.395
	c-5.259,14.312-12.617,26.781-22.078,37.383c-9.484,10.604-20.742,18.906-33.797,24.914c-13.056,6-27.398,9.018-43.009,9.018
	c-15.617,0-30.023-3.018-43.195-9.018c-13.195-6.008-24.523-14.312-33.984-24.914c-9.484-10.602-16.844-23.068-22.086-37.383
	c-5.25-14.312-7.867-29.779-7.867-46.391c0-16.61,2.617-32.062,7.867-46.383c5.242-14.32,12.602-26.773,22.086-37.383
	c9.461-10.609,20.789-18.914,33.984-24.922c13.172-6.008,27.578-9,43.195-9c15.609,0,29.953,2.992,43.009,9
	c13.055,6.008,24.312,14.312,33.797,24.922c9.461,10.609,16.819,23.062,22.078,37.383c5.241,14.32,7.866,29.773,7.866,46.383
	C356.938,266.614,354.313,282.082,349.072,296.395L349.072,296.395z"/>
</svg>
