<?xml version="1.0" encoding="utf-8"?>
<!-- Generator: Adobe Illustrator 13.0.0, SVG Export Plug-In . SVG Version: 6.00 Build 14948)  -->
<!DOCTYPE svg PUBLIC "-//W3C//DTD SVG 1.1 Basic//EN" "http://www.w3.org/Graphics/SVG/1.1/DTD/svg11-basic.dtd">
<svg version="1.1" baseProfile="basic" id="T" xmlns="http://www.w3.org/2000/svg" xmlns:xlink="http://www.w3.org/1999/xlink"
	 x="0px" y="0px" width="569.022px" height="711.768px" viewBox="0 0 569.022 711.768" xml:space="preserve">
<path id="bottom" d="M432.675,557.242c63.629-22.725,108.169-70.9,134.529-131.803h1.818v21.814
	c0,139.074-83.626,264.514-269.059,264.514C122.712,711.768,0,600.873,0,453.617c0-129.984,109.077-222.7,260.878-255.423
	l0.908,1.818c-56.356,26.361-116.35,77.264-116.35,185.433c0,124.53,86.354,185.433,197.25,185.433
	c31.814,0,60.901-4.545,86.353-12.727L432.675,557.242z"/>
<polygon id="right" points="429.039,558.15 429.039,458.162 342.687,381.808 429.039,305.454 429.039,234.553 432.675,234.553 
	432.675,305.454 519.938,381.808 432.675,458.162 432.675,557.242 "/>
<polygon id="left" points="214.52,533.607 214.52,272.73 341.776,221.828 341.776,481.797 "/>
<path id="top" d="M429.039,234.553c-3.636,0-6.362,0-9.09,0c-77.263,0-199.976-60.902-273.603-60.902
	c-25.452,0-54.539,15.453-54.539,48.176c0,14.543,4.545,28.178,15.452,39.086l-0.909,0.909
	c-54.539-9.09-91.807-41.813-91.807-103.624c0-64.538,63.629-130.893,155.436-130.893c90.898,0,174.524,54.539,233.608,54.539
	c26.36,0,42.722-16.361,42.722-37.268c0-28.178-19.997-37.268-41.812-37.268c-3.637,0-14.544,0-27.27,1.818V6.399
	c27.27-7.272,37.268-6.363,48.176-6.363c47.267,0,128.166,27.27,128.166,111.805c0,64.538-49.085,117.258-120.895,122.712H429.039z"
	/>
</svg>
