<?xml version="1.0" encoding="iso-8859-1"?>
<!-- Generator: Adobe Illustrator 15.0.0, SVG Export Plug-In . SVG Version: 6.00 Build 0)  -->
<!DOCTYPE svg PUBLIC "-//W3C//DTD SVG 1.1//EN" "http://www.w3.org/Graphics/SVG/1.1/DTD/svg11.dtd">
<svg version="1.1" id="Layer_1" xmlns="http://www.w3.org/2000/svg" xmlns:xlink="http://www.w3.org/1999/xlink" x="0px" y="0px"
	 width="500px" height="500px" viewBox="0 0 500 500" style="enable-background:new 0 0 500 500;" xml:space="preserve">
<path d="M339.855,393.039v-27.648H216.206c12.289-13.82,24.578-27.578,36.868-41.281c12.289-13.694,22.523-25.914,30.719-36.672
	c7.172-9.219,13.695-18.172,19.586-26.883c5.892-8.688,11.008-17.203,15.359-25.531c4.352-8.312,7.742-16.578,10.18-24.766
	c2.43-8.203,3.641-16.383,3.641-24.578c0-11.523-2.047-22.078-6.141-31.688c-4.094-9.594-9.922-17.906-17.469-24.953
	c-7.562-7.039-16.773-12.477-27.648-16.313c-10.883-3.852-23.108-5.766-36.671-5.766c-12.039,0-24.195,1.984-36.477,5.945
	c-12.297,3.977-24.07,9.672-35.328,17.094l9.977,26.492c9.219-6.141,18.875-11,28.992-14.594
	c10.109-3.578,21.312-5.367,33.602-5.367c8.704,0,16.383,1.336,23.04,4.023c6.656,2.695,12.289,6.281,16.897,10.766
	c4.609,4.469,8.062,9.781,10.367,15.922c2.306,6.141,3.453,12.68,3.453,19.578c0,12.812-3.328,26.453-9.983,40.906
	c-6.656,14.469-18.048,31.562-34.173,51.266c-5.375,6.655-11.133,13.633-17.282,20.93c-6.141,7.289-13.055,15.358-20.734,24.188
	c-7.679,8.828-16.195,18.438-25.539,28.797c-9.352,10.375-19.773,21.828-31.297,34.367l2.305,5.766H339.855L339.855,393.039z"/>
</svg>
